<svg version="1.1" xmlns="http://www.w3.org/2000/svg" viewBox="0 0 1285.478681422584 1171.904183062914" width="1285.478681422584" height="1171.904183062914">
  <!-- svg-source:excalidraw -->
  
  <defs>
    <style class="style-fonts">
      @font-face {
        font-family: "Virgil";
        src: url("https://excalidraw.com/Virgil.woff2");
      }
      @font-face {
        font-family: "Cascadia";
        src: url("https://excalidraw.com/Cascadia.woff2");
      }
      @font-face {
        font-family: "Assistant";
        src: url("https://excalidraw.com/Assistant-Regular.woff2");
      }
    </style>
    
  </defs>
  <rect x="0" y="0" width="1285.478681422584" height="1171.904183062914" fill="#ffffff"></rect><g stroke-opacity="0.9" fill-opacity="0.9" stroke-linecap="round" transform="translate(520.3043389592585 927.438273689193) rotate(0 124.55518275843815 73.65168423040814)"><path d="M32 0 C101.39 0, 170.78 0, 217.11 0 C238.44 0, 249.11 10.67, 249.11 32 C249.11 55.07, 249.11 78.13, 249.11 115.3 C249.11 136.64, 238.44 147.3, 217.11 147.3 C165.12 147.3, 113.13 147.3, 32 147.3 C10.67 147.3, 0 136.64, 0 115.3 C0 95.61, 0 75.91, 0 32 C0 10.67, 10.67 0, 32 0" stroke="none" stroke-width="0" fill="#ffec99"></path><path d="M32 0 C102.33 0, 172.67 0, 217.11 0 M32 0 C90.46 0, 148.91 0, 217.11 0 M217.11 0 C238.44 0, 249.11 10.67, 249.11 32 M217.11 0 C238.44 0, 249.11 10.67, 249.11 32 M249.11 32 C249.11 55.68, 249.11 79.36, 249.11 115.3 M249.11 32 C249.11 57.75, 249.11 83.5, 249.11 115.3 M249.11 115.3 C249.11 136.64, 238.44 147.3, 217.11 147.3 M249.11 115.3 C249.11 136.64, 238.44 147.3, 217.11 147.3 M217.11 147.3 C151.16 147.3, 85.2 147.3, 32 147.3 M217.11 147.3 C143.65 147.3, 70.19 147.3, 32 147.3 M32 147.3 C10.67 147.3, 0 136.64, 0 115.3 M32 147.3 C10.67 147.3, 0 136.64, 0 115.3 M0 115.3 C0 82.98, 0 50.65, 0 32 M0 115.3 C0 97.05, 0 78.79, 0 32 M0 32 C0 10.67, 10.67 0, 32 0 M0 32 C0 10.67, 10.67 0, 32 0" stroke="#1e1e1e" stroke-width="2" fill="none"></path></g><g stroke-opacity="0.9" fill-opacity="0.9" transform="translate(538.5885371928948 947.4258403836448) rotate(0 103.03333282470703 9.600000000000364)"><text x="0" y="0" font-family="Cascadia, Segoe UI Emoji" font-size="16px" fill="#1e1e1e" text-anchor="start" style="white-space: pre;" direction="ltr" dominant-baseline="text-before-edge">XYZ Unotify WorkerPool</text></g><g stroke-opacity="0.9" fill-opacity="0.9" stroke-linecap="round" transform="translate(574.0823072533624 981.2558831098049) rotate(0 38.47059432315871 19.161269343997446)"><path d="M9.58 0 C27.88 0, 46.17 0, 67.36 0 C73.75 0, 76.94 3.19, 76.94 9.58 C76.94 17.06, 76.94 24.54, 76.94 28.74 C76.94 35.13, 73.75 38.32, 67.36 38.32 C52.54 38.32, 37.71 38.32, 9.58 38.32 C3.19 38.32, 0 35.13, 0 28.74 C0 22.43, 0 16.11, 0 9.58 C0 3.19, 3.19 0, 9.58 0" stroke="none" stroke-width="0" fill="#b2f2bb"></path><path d="M9.58 0 C31.82 0, 54.07 0, 67.36 0 M9.58 0 C23.68 0, 37.77 0, 67.36 0 M67.36 0 C73.75 0, 76.94 3.19, 76.94 9.58 M67.36 0 C73.75 0, 76.94 3.19, 76.94 9.58 M76.94 9.58 C76.94 15.55, 76.94 21.53, 76.94 28.74 M76.94 9.58 C76.94 15.19, 76.94 20.8, 76.94 28.74 M76.94 28.74 C76.94 35.13, 73.75 38.32, 67.36 38.32 M76.94 28.74 C76.94 35.13, 73.75 38.32, 67.36 38.32 M67.36 38.32 C46.19 38.32, 25.01 38.32, 9.58 38.32 M67.36 38.32 C48.38 38.32, 29.4 38.32, 9.58 38.32 M9.58 38.32 C3.19 38.32, 0 35.13, 0 28.74 M9.58 38.32 C3.19 38.32, 0 35.13, 0 28.74 M0 28.74 C0 21.3, 0 13.86, 0 9.58 M0 28.74 C0 24.63, 0 20.52, 0 9.58 M0 9.58 C0 3.19, 3.19 0, 9.58 0 M0 9.58 C0 3.19, 3.19 0, 9.58 0" stroke="#1e1e1e" stroke-width="2" fill="none"></path></g><g stroke-opacity="0.9" fill-opacity="0.9" transform="translate(583.2195676074049 988.4171524538033) rotate(0 29.33333396911621 12)"><text x="29.33333396911621" y="0" font-family="Cascadia, Segoe UI Emoji" font-size="20px" fill="#1e1e1e" text-anchor="middle" style="white-space: pre;" direction="ltr" dominant-baseline="text-before-edge">BLPOP</text></g><g stroke-opacity="0.9" fill-opacity="0.9" stroke-linecap="round" transform="translate(592.7273846293531 998.1719450105975) rotate(0 38.47059432315871 19.161269343997446)"><path d="M9.58 0 C31.42 0, 53.25 0, 67.36 0 C73.75 0, 76.94 3.19, 76.94 9.58 C76.94 16.07, 76.94 22.55, 76.94 28.74 C76.94 35.13, 73.75 38.32, 67.36 38.32 C44.59 38.32, 21.82 38.32, 9.58 38.32 C3.19 38.32, 0 35.13, 0 28.74 C0 24.68, 0 20.62, 0 9.58 C0 3.19, 3.19 0, 9.58 0" stroke="none" stroke-width="0" fill="#b2f2bb"></path><path d="M9.58 0 C32.25 0, 54.92 0, 67.36 0 M9.58 0 C24.22 0, 38.86 0, 67.36 0 M67.36 0 C73.75 0, 76.94 3.19, 76.94 9.58 M67.36 0 C73.75 0, 76.94 3.19, 76.94 9.58 M76.94 9.58 C76.94 13.88, 76.94 18.18, 76.94 28.74 M76.94 9.58 C76.94 15.37, 76.94 21.16, 76.94 28.74 M76.94 28.74 C76.94 35.13, 73.75 38.32, 67.36 38.32 M76.94 28.74 C76.94 35.13, 73.75 38.32, 67.36 38.32 M67.36 38.32 C44.35 38.32, 21.33 38.32, 9.58 38.32 M67.36 38.32 C44.98 38.32, 22.59 38.32, 9.58 38.32 M9.58 38.32 C3.19 38.32, 0 35.13, 0 28.74 M9.58 38.32 C3.19 38.32, 0 35.13, 0 28.74 M0 28.74 C0 23.16, 0 17.57, 0 9.58 M0 28.74 C0 23.86, 0 18.97, 0 9.58 M0 9.58 C0 3.19, 3.19 0, 9.58 0 M0 9.58 C0 3.19, 3.19 0, 9.58 0" stroke="#1e1e1e" stroke-width="2" fill="none"></path></g><g stroke-opacity="0.9" fill-opacity="0.9" transform="translate(601.8646449833956 1005.3332143545958) rotate(0 29.33333396911621 12)"><text x="29.33333396911621" y="0" font-family="Cascadia, Segoe UI Emoji" font-size="20px" fill="#1e1e1e" text-anchor="middle" style="white-space: pre;" direction="ltr" dominant-baseline="text-before-edge">BLPOP</text></g><g stroke-opacity="0.9" fill-opacity="0.9" stroke-linecap="round" transform="translate(621.7465548565327 1010.7654682233951) rotate(0 38.47059432315871 19.161269343997446)"><path d="M9.58 0 C32.21 0, 54.84 0, 67.36 0 C73.75 0, 76.94 3.19, 76.94 9.58 C76.94 14.56, 76.94 19.54, 76.94 28.74 C76.94 35.13, 73.75 38.32, 67.36 38.32 C49.24 38.32, 31.13 38.32, 9.58 38.32 C3.19 38.32, 0 35.13, 0 28.74 C0 24.21, 0 19.68, 0 9.58 C0 3.19, 3.19 0, 9.58 0" stroke="none" stroke-width="0" fill="#b2f2bb"></path><path d="M9.58 0 C21.48 0, 33.38 0, 67.36 0 M9.58 0 C22.75 0, 35.92 0, 67.36 0 M67.36 0 C73.75 0, 76.94 3.19, 76.94 9.58 M67.36 0 C73.75 0, 76.94 3.19, 76.94 9.58 M76.94 9.58 C76.94 15.81, 76.94 22.04, 76.94 28.74 M76.94 9.58 C76.94 16.37, 76.94 23.16, 76.94 28.74 M76.94 28.74 C76.94 35.13, 73.75 38.32, 67.36 38.32 M76.94 28.74 C76.94 35.13, 73.75 38.32, 67.36 38.32 M67.36 38.32 C48.5 38.32, 29.63 38.32, 9.58 38.32 M67.36 38.32 C49.92 38.32, 32.47 38.32, 9.58 38.32 M9.58 38.32 C3.19 38.32, 0 35.13, 0 28.74 M9.58 38.32 C3.19 38.32, 0 35.13, 0 28.74 M0 28.74 C0 22.7, 0 16.65, 0 9.58 M0 28.74 C0 23.8, 0 18.85, 0 9.58 M0 9.58 C0 3.19, 3.19 0, 9.58 0 M0 9.58 C0 3.19, 3.19 0, 9.58 0" stroke="#1e1e1e" stroke-width="2" fill="none"></path></g><g stroke-opacity="0.9" fill-opacity="0.9" transform="translate(630.8838152105752 1017.9267375673935) rotate(0 29.33333396911621 12)"><text x="29.33333396911621" y="0" font-family="Cascadia, Segoe UI Emoji" font-size="20px" fill="#1e1e1e" text-anchor="middle" style="white-space: pre;" direction="ltr" dominant-baseline="text-before-edge">BLPOP</text></g><g stroke-opacity="0.9" fill-opacity="0.9" stroke-linecap="round" transform="translate(787.478681422584 339.9448001942055) rotate(0 115 93)"><path d="M32 0 C89.85 0, 147.7 0, 198 0 M32 0 C79.54 0, 127.09 0, 198 0 M198 0 C219.33 0, 230 10.67, 230 32 M198 0 C219.33 0, 230 10.67, 230 32 M230 32 C230 65.8, 230 99.61, 230 154 M230 32 C230 78.39, 230 124.79, 230 154 M230 154 C230 175.33, 219.33 186, 198 186 M230 154 C230 175.33, 219.33 186, 198 186 M198 186 C160.8 186, 123.61 186, 32 186 M198 186 C132.77 186, 67.54 186, 32 186 M32 186 C10.67 186, 0 175.33, 0 154 M32 186 C10.67 186, 0 175.33, 0 154 M0 154 C0 120.33, 0 86.65, 0 32 M0 154 C0 129.55, 0 105.1, 0 32 M0 32 C0 10.67, 10.67 0, 32 0 M0 32 C0 10.67, 10.67 0, 32 0" stroke="#1e1e1e" stroke-width="2" fill="none"></path></g><g stroke-opacity="0.9" fill-opacity="0.9" transform="translate(829.478681422584 413.9448001942055) rotate(0 73.8499984741211 21.600000000000364)"><text x="0" y="0" font-family="Cascadia, Segoe UI Emoji" font-size="36px" fill="#1e1e1e" text-anchor="start" style="white-space: pre;" direction="ltr" dominant-baseline="text-before-edge">unotify</text></g><g stroke-linecap="round" transform="translate(860.3943259517424 10) rotate(0 19.08919641843957 20.336765988927255)"><path d="M38.18 20.34 C38.18 21.51, 38.08 22.71, 37.89 23.87 C37.7 25.03, 37.41 26.19, 37.03 27.29 C36.65 28.4, 36.17 29.49, 35.62 30.51 C35.07 31.52, 34.42 32.51, 33.71 33.41 C33 34.31, 32.21 35.16, 31.36 35.92 C30.51 36.67, 29.59 37.36, 28.63 37.95 C27.68 38.54, 26.66 39.04, 25.62 39.45 C24.58 39.85, 23.49 40.16, 22.4 40.36 C21.32 40.57, 20.19 40.67, 19.09 40.67 C17.98 40.67, 16.86 40.57, 15.77 40.36 C14.69 40.16, 13.6 39.85, 12.56 39.45 C11.52 39.04, 10.5 38.54, 9.54 37.95 C8.59 37.36, 7.67 36.67, 6.82 35.92 C5.97 35.16, 5.18 34.31, 4.47 33.41 C3.76 32.51, 3.11 31.52, 2.56 30.51 C2.01 29.49, 1.53 28.4, 1.15 27.29 C0.77 26.19, 0.48 25.03, 0.29 23.87 C0.1 22.71, 0 21.51, 0 20.34 C0 19.16, 0.1 17.96, 0.29 16.81 C0.48 15.65, 0.77 14.49, 1.15 13.38 C1.53 12.28, 2.01 11.19, 2.56 10.17 C3.11 9.15, 3.76 8.17, 4.47 7.26 C5.18 6.36, 5.97 5.51, 6.82 4.76 C7.67 4, 8.59 3.31, 9.54 2.72 C10.5 2.14, 11.52 1.63, 12.56 1.23 C13.6 0.82, 14.69 0.51, 15.77 0.31 C16.86 0.1, 17.98 0, 19.09 0 C20.19 0, 21.32 0.1, 22.4 0.31 C23.49 0.51, 24.58 0.82, 25.62 1.23 C26.66 1.63, 27.68 2.14, 28.63 2.72 C29.59 3.31, 30.51 4, 31.36 4.76 C32.21 5.51, 33 6.36, 33.71 7.26 C34.42 8.17, 35.07 9.15, 35.62 10.17 C36.17 11.19, 36.65 12.28, 37.03 13.38 C37.41 14.49, 37.7 15.65, 37.89 16.81 C38.08 17.96, 38.13 19.75, 38.18 20.34 C38.23 20.93, 38.23 19.75, 38.18 20.34" stroke="#1e1e1e" stroke-width="2" fill="none"></path></g><g stroke-linecap="round"><g transform="translate(839.033372586212 103.8529000713188) rotate(0 44.44530883637215 -18.153015592286465)"><path d="M0 0 C2.03 -4.2, 5.25 -19.12, 12.17 -25.22 C19.1 -31.32, 31.22 -36.31, 41.56 -36.6 C51.9 -36.9, 66.33 -33.14, 74.22 -26.99 C82.1 -20.84, 86.44 -4.25, 88.89 0.3 M0 0 C2.03 -4.2, 5.25 -19.12, 12.17 -25.22 C19.1 -31.32, 31.22 -36.31, 41.56 -36.6 C51.9 -36.9, 66.33 -33.14, 74.22 -26.99 C82.1 -20.84, 86.44 -4.25, 88.89 0.3" stroke="#1e1e1e" stroke-width="2" fill="none"></path></g></g><mask></mask><g mask="url(#mask-xOGXPVNQlTkkCid-UbP6W)" stroke-linecap="round"><g stroke-opacity="0.9" fill-opacity="0.9" transform="translate(883.478681422584 121.94480019420553) rotate(0 -1 96)"><path d="M0 0 C-0.33 32, -1.67 160, -2 192 M0 0 C-0.33 32, -1.67 160, -2 192" stroke="#1e1e1e" stroke-width="2" fill="none"></path></g><g stroke-opacity="0.9" fill-opacity="0.9" transform="translate(883.478681422584 121.94480019420553) rotate(0 -1 96)"><path d="M-10.31 168.42 C-7.73 175.74, -5.15 183.07, -2 192 M-10.31 168.42 C-7.68 175.88, -5.05 183.34, -2 192" stroke="#1e1e1e" stroke-width="2" fill="none"></path></g><g stroke-opacity="0.9" fill-opacity="0.9" transform="translate(883.478681422584 121.94480019420553) rotate(0 -1 96)"><path d="M6.79 168.6 C4.06 175.87, 1.33 183.14, -2 192 M6.79 168.6 C4.01 176, 1.23 183.4, -2 192" stroke="#1e1e1e" stroke-width="2" fill="none"></path></g></g><mask id="mask-xOGXPVNQlTkkCid-UbP6W"><rect x="0" y="0" fill="#fff" width="985.478681422584" height="413.9448001942055"></rect><rect x="806.2120111955333" y="205.94480019420553" fill="#000" width="152.53334045410156" height="24" opacity="1"></rect></mask><g stroke-opacity="0.9" fill-opacity="0.9" transform="translate(806.2120111955333 205.94480019420553) rotate(0 76.26667022705078 12)"><text x="76.26667022705078" y="0" font-family="Cascadia, Segoe UI Emoji" font-size="20px" fill="#1e1e1e" text-anchor="middle" style="white-space: pre;" direction="ltr" dominant-baseline="text-before-edge">register hook</text></g><g mask="url(#mask-8e8g72Po5VG8e3bpIvdpi)" stroke-linecap="round"><g stroke-opacity="0.9" fill-opacity="0.9" transform="translate(967.478681422584 319.9448001942055) rotate(0 48 -139)"><path d="M0 0 C26 -30.33, 166 -135.67, 156 -182 C146 -228.33, -24 -262, -60 -278 M0 0 C26 -30.33, 166 -135.67, 156 -182 C146 -228.33, -24 -262, -60 -278" stroke="#1e1e1e" stroke-width="2" fill="none"></path></g><g stroke-opacity="0.9" fill-opacity="0.9" transform="translate(967.478681422584 319.9448001942055) rotate(0 48 -139)"><path d="M-35.03 -279.12 C-41.2 -278.85, -47.37 -278.57, -60 -278 M-35.03 -279.12 C-40.25 -278.89, -45.48 -278.65, -60 -278" stroke="#1e1e1e" stroke-width="2" fill="none"></path></g><g stroke-opacity="0.9" fill-opacity="0.9" transform="translate(967.478681422584 319.9448001942055) rotate(0 48 -139)"><path d="M-40.15 -262.81 C-45.05 -266.56, -49.96 -270.32, -60 -278 M-40.15 -262.81 C-44.3 -265.99, -48.46 -269.17, -60 -278" stroke="#1e1e1e" stroke-width="2" fill="none"></path></g></g><mask id="mask-8e8g72Po5VG8e3bpIvdpi"><rect x="0" y="0" fill="#fff" width="1283.478681422584" height="697.9448001942055"></rect><rect x="1017.8786829484629" y="89.94480019420553" fill="#000" width="211.1999969482422" height="96" opacity="1"></rect></mask><g stroke-opacity="0.9" fill-opacity="0.9" transform="translate(1017.8786829484629 89.94480019420553) rotate(0 -2.1448839713721384 91)"><text x="105.5999984741211" y="0" font-family="Cascadia, Segoe UI Emoji" font-size="20px" fill="#1e1e1e" text-anchor="middle" style="white-space: pre;" direction="ltr" dominant-baseline="text-before-edge">gets callback url </text><text x="105.5999984741211" y="24" font-family="Cascadia, Segoe UI Emoji" font-size="20px" fill="#1e1e1e" text-anchor="middle" style="white-space: pre;" direction="ltr" dominant-baseline="text-before-edge">path</text><text x="105.5999984741211" y="48" font-family="Cascadia, Segoe UI Emoji" font-size="20px" fill="#1e1e1e" text-anchor="middle" style="white-space: pre;" direction="ltr" dominant-baseline="text-before-edge">&amp;</text><text x="105.5999984741211" y="72" font-family="Cascadia, Segoe UI Emoji" font-size="20px" fill="#1e1e1e" text-anchor="middle" style="white-space: pre;" direction="ltr" dominant-baseline="text-before-edge">secret_tokn</text></g><g mask="url(#mask-r79OG3IP3SG3JaCfpoVXV)" stroke-linecap="round"><g stroke-opacity="0.9" fill-opacity="0.9" transform="translate(815.478681422584 111.94480019420553) rotate(0 -245.73934071129213 2.9312249041495306)"><path d="M0 0 C-81.91 0.98, -409.57 4.89, -491.48 5.86 M0 0 C-81.91 0.98, -409.57 4.89, -491.48 5.86" stroke="#1e1e1e" stroke-width="2" fill="none"></path></g><g stroke-opacity="0.9" fill-opacity="0.9" transform="translate(815.478681422584 111.94480019420553) rotate(0 -245.73934071129213 2.9312249041495306)"><path d="M-468.09 -2.97 C-473.3 -1, -478.51 0.97, -491.48 5.86 M-468.09 -2.97 C-473.1 -1.08, -478.1 0.81, -491.48 5.86" stroke="#1e1e1e" stroke-width="2" fill="none"></path></g><g stroke-opacity="0.9" fill-opacity="0.9" transform="translate(815.478681422584 111.94480019420553) rotate(0 -245.73934071129213 2.9312249041495306)"><path d="M-467.89 14.13 C-473.14 12.29, -478.4 10.45, -491.48 5.86 M-467.89 14.13 C-472.94 12.36, -477.99 10.59, -491.48 5.86" stroke="#1e1e1e" stroke-width="2" fill="none"></path></g></g><mask id="mask-r79OG3IP3SG3JaCfpoVXV"><rect x="0" y="0" fill="#fff" width="1406.9573628451683" height="217.8072500025046"></rect><rect x="516.9393414742314" y="66.87602509835415" fill="#000" width="105.5999984741211" height="96" opacity="1"></rect></mask><g stroke-opacity="0.9" fill-opacity="0.9" transform="translate(516.9393414742314 66.87602509835415) rotate(0 52.79999923706055 48.00000000000091)"><text x="52.79999923706055" y="0" font-family="Cascadia, Segoe UI Emoji" font-size="20px" fill="#1e1e1e" text-anchor="middle" style="white-space: pre;" direction="ltr" dominant-baseline="text-before-edge">registers</text><text x="52.79999923706055" y="24" font-family="Cascadia, Segoe UI Emoji" font-size="20px" fill="#1e1e1e" text-anchor="middle" style="white-space: pre;" direction="ltr" dominant-baseline="text-before-edge">hook url</text><text x="52.79999923706055" y="48" font-family="Cascadia, Segoe UI Emoji" font-size="20px" fill="#1e1e1e" text-anchor="middle" style="white-space: pre;" direction="ltr" dominant-baseline="text-before-edge">&amp;</text><text x="52.79999923706055" y="72" font-family="Cascadia, Segoe UI Emoji" font-size="20px" fill="#1e1e1e" text-anchor="middle" style="white-space: pre;" direction="ltr" dominant-baseline="text-before-edge">token</text></g><g mask="url(#mask-c5dMYZ9QPU07xwGsoqBGY)" stroke-linecap="round"><g stroke-opacity="0.9" fill-opacity="0.9" transform="translate(170.6247093164783 244.8183466548362) rotate(0 298.4269860530529 108.56322676968466)"><path d="M0 0 C10.28 35.36, -37.79 176, 61.69 212.19 C161.16 248.38, 507.66 216.3, 596.85 217.13 M0 0 C10.28 35.36, -37.79 176, 61.69 212.19 C161.16 248.38, 507.66 216.3, 596.85 217.13" stroke="#1e1e1e" stroke-width="2" fill="none"></path></g><g stroke-opacity="0.9" fill-opacity="0.9" transform="translate(170.6247093164783 244.8183466548362) rotate(0 298.4269860530529 108.56322676968466)"><path d="M573.72 226.6 C582.29 223.09, 590.86 219.58, 596.85 217.13 M573.72 226.6 C580.06 224.01, 586.4 221.41, 596.85 217.13" stroke="#1e1e1e" stroke-width="2" fill="none"></path></g><g stroke-opacity="0.9" fill-opacity="0.9" transform="translate(170.6247093164783 244.8183466548362) rotate(0 298.4269860530529 108.56322676968466)"><path d="M573.04 209.52 C581.86 212.34, 590.69 215.16, 596.85 217.13 M573.04 209.52 C579.57 211.6, 586.09 213.69, 596.85 217.13" stroke="#1e1e1e" stroke-width="2" fill="none"></path></g></g><mask id="mask-c5dMYZ9QPU07xwGsoqBGY"><rect x="0" y="0" fill="#fff" width="867.478681422584" height="561.9448001942055"></rect><rect x="138.44365098977426" y="421.00608891139746" fill="#000" width="187.73333740234375" height="72" opacity="1"></rect></mask><g stroke-opacity="0.9" fill-opacity="0.9" transform="translate(138.44365098977426 421.00608891139746) rotate(0 329.20137819901686 -61.46219890700468)"><text x="93.86666870117188" y="0" font-family="Cascadia, Segoe UI Emoji" font-size="20px" fill="#1e1e1e" text-anchor="middle" style="white-space: pre;" direction="ltr" dominant-baseline="text-before-edge">call webhook</text><text x="93.86666870117188" y="24" font-family="Cascadia, Segoe UI Emoji" font-size="20px" fill="#1e1e1e" text-anchor="middle" style="white-space: pre;" direction="ltr" dominant-baseline="text-before-edge">with</text><text x="93.86666870117188" y="48" font-family="Cascadia, Segoe UI Emoji" font-size="20px" fill="#1e1e1e" text-anchor="middle" style="white-space: pre;" direction="ltr" dominant-baseline="text-before-edge">data &amp; signature</text></g><g stroke-opacity="0.9" fill-opacity="0.9" stroke-linecap="round" transform="translate(605.4786814225843 576.757753768612) rotate(0 334.9999999999999 22)"><path d="M11 0 C154.78 0, 298.57 0, 659 0 M11 0 C191.79 0, 372.58 0, 659 0 M659 0 C666.33 0, 670 3.67, 670 11 M659 0 C666.33 0, 670 3.67, 670 11 M670 11 C670 18.35, 670 25.7, 670 33 M670 11 C670 18.85, 670 26.7, 670 33 M670 33 C670 40.33, 666.33 44, 659 44 M670 33 C670 40.33, 666.33 44, 659 44 M659 44 C523.67 44, 388.35 44, 11 44 M659 44 C399.93 44, 140.86 44, 11 44 M11 44 C3.67 44, 0 40.33, 0 33 M11 44 C3.67 44, 0 40.33, 0 33 M0 33 C0 25.42, 0 17.84, 0 11 M0 33 C0 25.58, 0 18.16, 0 11 M0 11 C0 3.67, 3.67 0, 11 0 M0 11 C0 3.67, 3.67 0, 11 0" stroke="#1e1e1e" stroke-width="2" fill="none"></path></g><g stroke-opacity="0.9" fill-opacity="0.9" transform="translate(805.5453470719982 586.757753768612) rotate(0 134.93333435058594 12)"><text x="134.93333435058594" y="0" font-family="Cascadia, Segoe UI Emoji" font-size="20px" fill="#1e1e1e" text-anchor="middle" style="white-space: pre;" direction="ltr" dominant-baseline="text-before-edge">Event Storage Interface</text></g><g mask="url(#mask-SSibfoHmRMKiKjDgi_nzz)" stroke-linecap="round"><g stroke-opacity="0.9" fill-opacity="0.9" transform="translate(886.3431891601831 537.0802924566069) rotate(0 4 87)"><path d="M0 0 C0.32 19.48, 0.62 87.89, 1.95 116.89 C3.28 145.89, 6.99 164.48, 8 174 M0 0 C0.32 19.48, 0.62 87.89, 1.95 116.89 C3.28 145.89, 6.99 164.48, 8 174" stroke="#1e1e1e" stroke-width="2" fill="none"></path></g><g stroke-opacity="0.9" fill-opacity="0.9" transform="translate(886.3431891601831 537.0802924566069) rotate(0 4 87)"><path d="M-3.63 151.87 C0.86 160.41, 5.35 168.95, 8 174 M-3.63 151.87 C-0.95 156.98, 1.73 162.08, 8 174" stroke="#1e1e1e" stroke-width="2" fill="none"></path></g><g stroke-opacity="0.9" fill-opacity="0.9" transform="translate(886.3431891601831 537.0802924566069) rotate(0 4 87)"><path d="M13.31 149.57 C11.26 159, 9.21 168.43, 8 174 M13.31 149.57 C12.09 155.21, 10.86 160.84, 8 174" stroke="#1e1e1e" stroke-width="2" fill="none"></path></g></g><mask id="mask-SSibfoHmRMKiKjDgi_nzz"><rect x="0" y="0" fill="#fff" width="994.3431891601831" height="811.0802924566069"></rect><rect x="858.9583010278734" y="641.9699269397297" fill="#000" width="58.66666793823242" height="24" opacity="1"></rect></mask><g stroke-opacity="0.9" fill-opacity="0.9" transform="translate(858.9583010278734 641.9699269397297) rotate(0 31.384888132309698 -17.88963448312279)"><text x="29.33333396911621" y="0" font-family="Cascadia, Segoe UI Emoji" font-size="20px" fill="#1e1e1e" text-anchor="middle" style="white-space: pre;" direction="ltr" dominant-baseline="text-before-edge">RPUSH</text></g><g stroke-linecap="round"><g stroke-opacity="0.9" fill-opacity="0.9" transform="translate(832.8244918021626 800.0896015068029) rotate(0 -19.338542484419207 0.5819473579122132)"><path d="M0 0 C-6.45 0.19, -32.23 0.97, -38.68 1.16 M0 0 C-6.45 0.19, -32.23 0.97, -38.68 1.16" stroke="#1e1e1e" stroke-width="2" fill="none"></path></g><g stroke-opacity="0.9" fill-opacity="0.9" transform="translate(832.8244918021626 800.0896015068029) rotate(0 -19.338542484419207 0.5819473579122132)"><path d="M-20.7 -6 C-27.41 -3.33, -34.11 -0.66, -38.68 1.16 M-20.7 -6 C-27.32 -3.36, -33.93 -0.73, -38.68 1.16" stroke="#1e1e1e" stroke-width="2" fill="none"></path></g><g stroke-opacity="0.9" fill-opacity="0.9" transform="translate(832.8244918021626 800.0896015068029) rotate(0 -19.338542484419207 0.5819473579122132)"><path d="M-20.31 7.23 C-27.16 4.97, -34.01 2.71, -38.68 1.16 M-20.31 7.23 C-27.06 5, -33.82 2.77, -38.68 1.16" stroke="#1e1e1e" stroke-width="2" fill="none"></path></g></g><mask></mask><g stroke-opacity="0.9" fill-opacity="0.9" stroke-linecap="round" transform="translate(517.5533699330126 730.0211521367928) rotate(0 124.55518275843815 73.65168423040814)"><path d="M32 0 C99.67 0, 167.33 0, 217.11 0 C238.44 0, 249.11 10.67, 249.11 32 C249.11 59.13, 249.11 86.26, 249.11 115.3 C249.11 136.64, 238.44 147.3, 217.11 147.3 C171.19 147.3, 125.27 147.3, 32 147.3 C10.67 147.3, 0 136.64, 0 115.3 C0 97.27, 0 79.23, 0 32 C0 10.67, 10.67 0, 32 0" stroke="none" stroke-width="0" fill="#ffec99"></path><path d="M32 0 C75.87 0, 119.73 0, 217.11 0 M32 0 C77.06 0, 122.13 0, 217.11 0 M217.11 0 C238.44 0, 249.11 10.67, 249.11 32 M217.11 0 C238.44 0, 249.11 10.67, 249.11 32 M249.11 32 C249.11 53.98, 249.11 75.95, 249.11 115.3 M249.11 32 C249.11 60.25, 249.11 88.5, 249.11 115.3 M249.11 115.3 C249.11 136.64, 238.44 147.3, 217.11 147.3 M249.11 115.3 C249.11 136.64, 238.44 147.3, 217.11 147.3 M217.11 147.3 C144.97 147.3, 72.82 147.3, 32 147.3 M217.11 147.3 C165.68 147.3, 114.25 147.3, 32 147.3 M32 147.3 C10.67 147.3, 0 136.64, 0 115.3 M32 147.3 C10.67 147.3, 0 136.64, 0 115.3 M0 115.3 C0 88.82, 0 62.33, 0 32 M0 115.3 C0 85.11, 0 54.91, 0 32 M0 32 C0 10.67, 10.67 0, 32 0 M0 32 C0 10.67, 10.67 0, 32 0" stroke="#1e1e1e" stroke-width="2" fill="none"></path></g><g stroke-opacity="0.9" fill-opacity="0.9" transform="translate(522.7300589416416 753.4169887716289) rotate(0 117.08333587646484 9.600000000000364)"><text x="0" y="0" font-family="Cascadia, Segoe UI Emoji" font-size="16px" fill="#1e1e1e" text-anchor="start" style="white-space: pre;" direction="ltr" dominant-baseline="text-before-edge">Github Unotify WorkerPool</text></g><g stroke-opacity="0.9" fill-opacity="0.9" stroke-linecap="round" transform="translate(571.3313382271165 783.8387615574047) rotate(0 38.47059432315871 19.161269343997446)"><path d="M9.58 0 C28.5 0, 47.42 0, 67.36 0 C73.75 0, 76.94 3.19, 76.94 9.58 C76.94 14.27, 76.94 18.96, 76.94 28.74 C76.94 35.13, 73.75 38.32, 67.36 38.32 C52.3 38.32, 37.24 38.32, 9.58 38.32 C3.19 38.32, 0 35.13, 0 28.74 C0 24.57, 0 20.39, 0 9.58 C0 3.19, 3.19 0, 9.58 0" stroke="none" stroke-width="0" fill="#b2f2bb"></path><path d="M9.58 0 C29.3 0, 49.03 0, 67.36 0 M9.58 0 C32.44 0, 55.29 0, 67.36 0 M67.36 0 C73.75 0, 76.94 3.19, 76.94 9.58 M67.36 0 C73.75 0, 76.94 3.19, 76.94 9.58 M76.94 9.58 C76.94 15, 76.94 20.42, 76.94 28.74 M76.94 9.58 C76.94 17.11, 76.94 24.65, 76.94 28.74 M76.94 28.74 C76.94 35.13, 73.75 38.32, 67.36 38.32 M76.94 28.74 C76.94 35.13, 73.75 38.32, 67.36 38.32 M67.36 38.32 C47.82 38.32, 28.27 38.32, 9.58 38.32 M67.36 38.32 C51.19 38.32, 35.02 38.32, 9.58 38.32 M9.58 38.32 C3.19 38.32, 0 35.13, 0 28.74 M9.58 38.32 C3.19 38.32, 0 35.13, 0 28.74 M0 28.74 C0 22.7, 0 16.66, 0 9.58 M0 28.74 C0 24.72, 0 20.7, 0 9.58 M0 9.58 C0 3.19, 3.19 0, 9.58 0 M0 9.58 C0 3.19, 3.19 0, 9.58 0" stroke="#1e1e1e" stroke-width="2" fill="none"></path></g><g stroke-opacity="0.9" fill-opacity="0.9" transform="translate(580.468598581159 791.0000309014031) rotate(0 29.33333396911621 12)"><text x="29.33333396911621" y="0" font-family="Cascadia, Segoe UI Emoji" font-size="20px" fill="#1e1e1e" text-anchor="middle" style="white-space: pre;" direction="ltr" dominant-baseline="text-before-edge">BLPOP</text></g><g stroke-opacity="0.9" fill-opacity="0.9" stroke-linecap="round" transform="translate(589.9764156031072 800.7548234581973) rotate(0 38.47059432315871 19.161269343997446)"><path d="M9.58 0 C23.28 0, 36.98 0, 67.36 0 C73.75 0, 76.94 3.19, 76.94 9.58 C76.94 14.34, 76.94 19.1, 76.94 28.74 C76.94 35.13, 73.75 38.32, 67.36 38.32 C49.09 38.32, 30.82 38.32, 9.58 38.32 C3.19 38.32, 0 35.13, 0 28.74 C0 23, 0 17.26, 0 9.58 C0 3.19, 3.19 0, 9.58 0" stroke="none" stroke-width="0" fill="#b2f2bb"></path><path d="M9.58 0 C23.99 0, 38.41 0, 67.36 0 M9.58 0 C23.36 0, 37.15 0, 67.36 0 M67.36 0 C73.75 0, 76.94 3.19, 76.94 9.58 M67.36 0 C73.75 0, 76.94 3.19, 76.94 9.58 M76.94 9.58 C76.94 15.74, 76.94 21.91, 76.94 28.74 M76.94 9.58 C76.94 15.41, 76.94 21.24, 76.94 28.74 M76.94 28.74 C76.94 35.13, 73.75 38.32, 67.36 38.32 M76.94 28.74 C76.94 35.13, 73.75 38.32, 67.36 38.32 M67.36 38.32 C48.29 38.32, 29.22 38.32, 9.58 38.32 M67.36 38.32 C45.1 38.32, 22.84 38.32, 9.58 38.32 M9.58 38.32 C3.19 38.32, 0 35.13, 0 28.74 M9.58 38.32 C3.19 38.32, 0 35.13, 0 28.74 M0 28.74 C0 22.81, 0 16.88, 0 9.58 M0 28.74 C0 22.61, 0 16.48, 0 9.58 M0 9.58 C0 3.19, 3.19 0, 9.58 0 M0 9.58 C0 3.19, 3.19 0, 9.58 0" stroke="#1e1e1e" stroke-width="2" fill="none"></path></g><g stroke-opacity="0.9" fill-opacity="0.9" transform="translate(599.1136759571497 807.9160928021956) rotate(0 29.33333396911621 12)"><text x="29.33333396911621" y="0" font-family="Cascadia, Segoe UI Emoji" font-size="20px" fill="#1e1e1e" text-anchor="middle" style="white-space: pre;" direction="ltr" dominant-baseline="text-before-edge">BLPOP</text></g><g stroke-opacity="0.9" fill-opacity="0.9" stroke-linecap="round" transform="translate(618.9955858302868 813.3483466709949) rotate(0 38.47059432315871 19.161269343997446)"><path d="M9.58 0 C23.94 0, 38.3 0, 67.36 0 C73.75 0, 76.94 3.19, 76.94 9.58 C76.94 14.96, 76.94 20.33, 76.94 28.74 C76.94 35.13, 73.75 38.32, 67.36 38.32 C55.03 38.32, 42.7 38.32, 9.58 38.32 C3.19 38.32, 0 35.13, 0 28.74 C0 22.52, 0 16.3, 0 9.58 C0 3.19, 3.19 0, 9.58 0" stroke="none" stroke-width="0" fill="#b2f2bb"></path><path d="M9.58 0 C23.06 0, 36.54 0, 67.36 0 M9.58 0 C29.23 0, 48.88 0, 67.36 0 M67.36 0 C73.75 0, 76.94 3.19, 76.94 9.58 M67.36 0 C73.75 0, 76.94 3.19, 76.94 9.58 M76.94 9.58 C76.94 15.71, 76.94 21.84, 76.94 28.74 M76.94 9.58 C76.94 15.28, 76.94 20.97, 76.94 28.74 M76.94 28.74 C76.94 35.13, 73.75 38.32, 67.36 38.32 M76.94 28.74 C76.94 35.13, 73.75 38.32, 67.36 38.32 M67.36 38.32 C50.42 38.32, 33.48 38.32, 9.58 38.32 M67.36 38.32 C48.45 38.32, 29.54 38.32, 9.58 38.32 M9.58 38.32 C3.19 38.32, 0 35.13, 0 28.74 M9.58 38.32 C3.19 38.32, 0 35.13, 0 28.74 M0 28.74 C0 24.76, 0 20.78, 0 9.58 M0 28.74 C0 24.34, 0 19.93, 0 9.58 M0 9.58 C0 3.19, 3.19 0, 9.58 0 M0 9.58 C0 3.19, 3.19 0, 9.58 0" stroke="#1e1e1e" stroke-width="2" fill="none"></path></g><g stroke-opacity="0.9" fill-opacity="0.9" transform="translate(628.1328461843293 820.5096160149933) rotate(0 29.33333396911621 12)"><text x="29.33333396911621" y="0" font-family="Cascadia, Segoe UI Emoji" font-size="20px" fill="#1e1e1e" text-anchor="middle" style="white-space: pre;" direction="ltr" dominant-baseline="text-before-edge">BLPOP</text></g><g transform="translate(847.66201577317 789.029922495567) rotate(0 57.81666564941406 12)"><text x="57.81666564941406" y="0" font-family="Virgil, Segoe UI Emoji" font-size="20px" fill="#000000" text-anchor="middle" style="white-space: pre;" direction="ltr" dominant-baseline="text-before-edge">ElastiCache</text></g><g stroke-linecap="round" transform="translate(872.9382608903577 718.859677892844) rotate(0 32.540420532226506 32.54042053222656)"><path d="M0 0 C0 0, 0 0, 0 0 M0 0 C0 0, 0 0, 0 0 M0.13 12.04 C3.13 8.59, 6.13 5.14, 10.63 -0.03 M0.13 12.04 C3.45 8.22, 6.77 4.41, 10.63 -0.03 M0.27 24.08 C5.45 18.12, 10.63 12.16, 21.26 -0.07 M0.27 24.08 C7.43 15.84, 14.59 7.6, 21.26 -0.07 M-0.26 36.88 C6.91 28.64, 14.07 20.39, 31.89 -0.1 M-0.26 36.88 C11.08 23.84, 22.41 10.8, 31.89 -0.1 M-0.12 48.92 C15.27 31.21, 30.67 13.49, 42.52 -0.14 M-0.12 48.92 C9.33 38.04, 18.79 27.16, 42.52 -0.14 M0.01 60.96 C18.15 40.09, 36.29 19.22, 53.15 -0.17 M0.01 60.96 C12.52 46.57, 25.02 32.18, 53.15 -0.17 M6.7 65.45 C24.1 45.45, 41.49 25.44, 63.78 -0.21 M6.7 65.45 C24.83 44.6, 42.96 23.74, 63.78 -0.21 M17.33 65.42 C30.99 49.71, 44.65 34, 65.88 9.57 M17.33 65.42 C34.42 45.76, 51.51 26.1, 65.88 9.57 M27.96 65.38 C40.09 51.44, 52.21 37.49, 66.02 21.61 M27.96 65.38 C35.69 56.49, 43.42 47.6, 66.02 21.61 M38.59 65.35 C46.91 55.78, 55.24 46.21, 65.49 34.41 M38.59 65.35 C45.01 57.96, 51.43 50.58, 65.49 34.41 M49.22 65.31 C54.47 59.28, 59.72 53.24, 65.63 46.45 M49.22 65.31 C54.98 58.69, 60.74 52.06, 65.63 46.45 M59.85 65.28 C61.14 63.8, 62.44 62.31, 65.76 58.49 M59.85 65.28 C61.51 63.38, 63.16 61.48, 65.76 58.49 M0.23 65.28 C0.23 65.28, 0.23 65.28, 0.23 65.28 M0.23 65.28 C0.23 65.28, 0.23 65.28, 0.23 65.28 M12.27 65.15 C9.5 62.74, 6.74 60.34, 0.19 54.65 M12.27 65.15 C9.75 62.96, 7.23 60.77, 0.19 54.65 M24.31 65.01 C16.14 57.91, 7.97 50.81, 0.16 44.02 M24.31 65.01 C19.04 60.43, 13.78 55.86, 0.16 44.02 M36.35 64.88 C25.97 55.85, 15.58 46.83, 0.13 33.39 M36.35 64.88 C28.88 58.38, 21.4 51.88, 0.13 33.39 M49.15 65.4 C35.78 53.78, 22.4 42.16, 0.09 22.76 M49.15 65.4 C35.66 53.68, 22.18 41.96, 0.09 22.76 M61.19 65.27 C38.9 45.9, 16.62 26.52, 0.06 12.13 M61.19 65.27 C48.78 54.49, 36.38 43.7, 0.06 12.13 M64.93 57.92 C50.01 44.96, 35.1 31.99, 0.02 1.5 M64.93 57.92 C47.41 42.7, 29.9 27.47, 0.02 1.5 M65.65 47.95 C45.42 30.37, 25.2 12.79, 9.8 -0.6 M65.65 47.95 C44.61 29.66, 23.58 11.38, 9.8 -0.6 M65.61 37.32 C56.42 29.32, 47.22 21.33, 21.84 -0.74 M65.61 37.32 C53.88 27.12, 42.15 16.92, 21.84 -0.74 M65.58 26.69 C59.07 21.03, 52.56 15.37, 33.88 -0.87 M65.58 26.69 C57.52 19.68, 49.47 12.68, 33.88 -0.87 M65.54 16.06 C60.07 11.3, 54.59 6.53, 46.68 -0.35 M65.54 16.06 C61.15 12.24, 56.76 8.42, 46.68 -0.35 M65.51 5.43 C63.15 3.38, 60.8 1.33, 58.72 -0.48 M65.51 5.43 C64.08 4.18, 62.65 2.94, 58.72 -0.48" stroke="#4c6ef588" stroke-width="1" fill="none"></path><path d="M0 0 C20.83 0, 41.66 0, 65.08 0 M0 0 C14.55 0, 29.1 0, 65.08 0 M65.08 0 C65.08 21.37, 65.08 42.74, 65.08 65.08 M65.08 0 C65.08 24.29, 65.08 48.59, 65.08 65.08 M65.08 65.08 C43.88 65.08, 22.68 65.08, 0 65.08 M65.08 65.08 C50.74 65.08, 36.4 65.08, 0 65.08 M0 65.08 C0 50.99, 0 36.89, 0 0 M0 65.08 C0 39.92, 0 14.76, 0 0" stroke="#000000" stroke-width="2" fill="none"></path></g><g stroke-linecap="round" transform="translate(892.9857520192875 740.430666457185) rotate(0 11.823757150997032 4.330767081598424)"><path d="M23.65 4.33 C23.65 4.58, 23.59 4.84, 23.47 5.08 C23.35 5.33, 23.17 5.58, 22.93 5.81 C22.7 6.05, 22.41 6.28, 22.06 6.5 C21.72 6.71, 21.32 6.92, 20.88 7.11 C20.44 7.31, 19.95 7.49, 19.42 7.65 C18.9 7.81, 18.33 7.96, 17.74 8.08 C17.14 8.21, 16.51 8.31, 15.87 8.4 C15.22 8.49, 14.55 8.55, 13.88 8.6 C13.2 8.64, 12.51 8.66, 11.82 8.66 C11.14 8.66, 10.44 8.64, 9.77 8.6 C9.1 8.55, 8.42 8.49, 7.78 8.4 C7.14 8.31, 6.5 8.21, 5.91 8.08 C5.32 7.96, 4.75 7.81, 4.22 7.65 C3.7 7.49, 3.21 7.31, 2.77 7.11 C2.33 6.92, 1.93 6.71, 1.58 6.5 C1.24 6.28, 0.95 6.05, 0.71 5.81 C0.48 5.58, 0.3 5.33, 0.18 5.08 C0.06 4.84, 0 4.58, 0 4.33 C0 4.08, 0.06 3.83, 0.18 3.58 C0.3 3.33, 0.48 3.09, 0.71 2.85 C0.95 2.61, 1.24 2.38, 1.58 2.17 C1.93 1.95, 2.33 1.74, 2.77 1.55 C3.21 1.35, 3.7 1.17, 4.22 1.01 C4.75 0.85, 5.32 0.71, 5.91 0.58 C6.5 0.45, 7.14 0.35, 7.78 0.26 C8.42 0.18, 9.1 0.11, 9.77 0.07 C10.44 0.02, 11.14 0, 11.82 0 C12.51 0, 13.2 0.02, 13.88 0.07 C14.55 0.11, 15.22 0.18, 15.87 0.26 C16.51 0.35, 17.14 0.45, 17.74 0.58 C18.33 0.71, 18.9 0.85, 19.42 1.01 C19.95 1.17, 20.44 1.35, 20.88 1.55 C21.32 1.74, 21.72 1.95, 22.06 2.17 C22.41 2.38, 22.7 2.61, 22.93 2.85 C23.17 3.09, 23.35 3.33, 23.47 3.58 C23.59 3.83, 23.62 4.21, 23.65 4.33 C23.68 4.46, 23.68 4.21, 23.65 4.33" stroke="#000000" stroke-width="2" fill="none"></path></g><g stroke-linecap="round"><g transform="translate(893.2219952204812 745.3198267137013) rotate(0 0.08584215863828604 13.47721890621142)"><path d="M0 0 C0.03 4.49, 0.14 22.46, 0.17 26.95 M0 0 C0.03 4.49, 0.14 22.46, 0.17 26.95" stroke="#000000" stroke-width="2" fill="none"></path></g></g><mask></mask><g stroke-linecap="round"><g transform="translate(916.6740729604628 745.0451318060605) rotate(0 0.05797120317895832 12.91812062452027)"><path d="M0 0 C0.02 4.31, 0.1 21.53, 0.12 25.84 M0 0 C0.02 4.31, 0.1 21.53, 0.12 25.84" stroke="#000000" stroke-width="2" fill="none"></path></g></g><mask></mask><g stroke-linecap="round"><g transform="translate(893.531026991579 772.3086013895809) rotate(0 11.58869141616944 1.0301059036601146)"><path d="M0 0 C0.17 0.17, 0.43 0.6, 1.03 1.03 C1.63 1.46, 2.75 2.23, 3.61 2.58 C4.46 2.92, 5.26 2.98, 6.18 3.09 C7.1 3.2, 8.16 3.23, 9.1 3.26 C10.04 3.29, 10.93 3.26, 11.85 3.26 C12.76 3.26, 13.59 3.35, 14.59 3.26 C15.59 3.18, 16.91 2.98, 17.86 2.75 C18.8 2.52, 19.51 2.26, 20.26 1.89 C21 1.52, 21.83 1.03, 22.32 0.52 C22.81 0, 23.03 -0.92, 23.18 -1.2 M0 0 C0.17 0.17, 0.43 0.6, 1.03 1.03 C1.63 1.46, 2.75 2.23, 3.61 2.58 C4.46 2.92, 5.26 2.98, 6.18 3.09 C7.1 3.2, 8.16 3.23, 9.1 3.26 C10.04 3.29, 10.93 3.26, 11.85 3.26 C12.76 3.26, 13.59 3.35, 14.59 3.26 C15.59 3.18, 16.91 2.98, 17.86 2.75 C18.8 2.52, 19.51 2.26, 20.26 1.89 C21 1.52, 21.83 1.03, 22.32 0.52 C22.81 0, 23.03 -0.92, 23.18 -1.2" stroke="#000000" stroke-width="2" fill="none"></path></g></g><mask></mask><g stroke-linecap="round"><g transform="translate(893.4585499209627 763.9651735808166) rotate(0 11.58869141616944 1.0301059036601146)"><path d="M0 0 C0.17 0.17, 0.43 0.6, 1.03 1.03 C1.63 1.46, 2.75 2.23, 3.61 2.58 C4.46 2.92, 5.26 2.98, 6.18 3.09 C7.1 3.2, 8.16 3.23, 9.1 3.26 C10.04 3.29, 10.93 3.26, 11.85 3.26 C12.76 3.26, 13.59 3.35, 14.59 3.26 C15.59 3.18, 16.91 2.98, 17.86 2.75 C18.8 2.52, 19.51 2.26, 20.26 1.89 C21 1.52, 21.83 1.03, 22.32 0.52 C22.81 0, 23.03 -0.92, 23.18 -1.2 M0 0 C0.17 0.17, 0.43 0.6, 1.03 1.03 C1.63 1.46, 2.75 2.23, 3.61 2.58 C4.46 2.92, 5.26 2.98, 6.18 3.09 C7.1 3.2, 8.16 3.23, 9.1 3.26 C10.04 3.29, 10.93 3.26, 11.85 3.26 C12.76 3.26, 13.59 3.35, 14.59 3.26 C15.59 3.18, 16.91 2.98, 17.86 2.75 C18.8 2.52, 19.51 2.26, 20.26 1.89 C21 1.52, 21.83 1.03, 22.32 0.52 C22.81 0, 23.03 -0.92, 23.18 -1.2" stroke="#000000" stroke-width="2" fill="none"></path></g></g><mask></mask><g stroke-linecap="round"><g transform="translate(893.4585499209627 754.9049317863319) rotate(0 11.58869141616944 1.0301059036601146)"><path d="M0 0 C0.17 0.17, 0.43 0.6, 1.03 1.03 C1.63 1.46, 2.75 2.23, 3.61 2.58 C4.46 2.92, 5.26 2.98, 6.18 3.09 C7.1 3.2, 8.16 3.23, 9.1 3.26 C10.04 3.29, 10.93 3.26, 11.85 3.26 C12.76 3.26, 13.59 3.35, 14.59 3.26 C15.59 3.18, 16.91 2.98, 17.86 2.75 C18.8 2.52, 19.51 2.26, 20.26 1.89 C21 1.52, 21.83 1.03, 22.32 0.52 C22.81 0, 23.03 -0.92, 23.18 -1.2 M0 0 C0.17 0.17, 0.43 0.6, 1.03 1.03 C1.63 1.46, 2.75 2.23, 3.61 2.58 C4.46 2.92, 5.26 2.98, 6.18 3.09 C7.1 3.2, 8.16 3.23, 9.1 3.26 C10.04 3.29, 10.93 3.26, 11.85 3.26 C12.76 3.26, 13.59 3.35, 14.59 3.26 C15.59 3.18, 16.91 2.98, 17.86 2.75 C18.8 2.52, 19.51 2.26, 20.26 1.89 C21 1.52, 21.83 1.03, 22.32 0.52 C22.81 0, 23.03 -0.92, 23.18 -1.2" stroke="#000000" stroke-width="2" fill="none"></path></g></g><mask></mask><g stroke-linecap="round"><g transform="translate(888.3648913663337 757.4785353605075) rotate(0 -4.242494173608243 -9.563588560845346)"><path d="M0 0 C-2.79 0, -5.57 0, -8.48 0 M0 0 C-3.17 0, -6.33 0, -8.48 0 M-8.48 0 C-8.48 -6.23, -8.48 -12.46, -8.48 -19.13 M-8.48 0 C-8.48 -4.21, -8.48 -8.43, -8.48 -19.13" stroke="#000000" stroke-width="2" fill="none"></path></g></g><mask></mask><g stroke-linecap="round"><g transform="translate(922.3767514361084 757.6079673861423) rotate(0 4.242494173608243 -9.563588560845346)"><path d="M0 0 C2.47 0, 4.94 0, 8.48 0 M0 0 C2.41 0, 4.82 0, 8.48 0 M8.48 0 C8.48 -5.31, 8.48 -10.63, 8.48 -19.13 M8.48 0 C8.48 -6.19, 8.48 -12.38, 8.48 -19.13" stroke="#000000" stroke-width="2" fill="none"></path></g></g><mask></mask><g stroke-linecap="round"><g transform="translate(879.8799030191171 731.5058422163147) rotate(0 25.598778403466817 -2.157200427258431)"><path d="M0 0 C0 -1.07, 0 -2.14, 0 -4.31 M0 0 C0 -1.17, 0 -2.34, 0 -4.31 M0 -4.31 C10.99 -4.25, 21.99 -4.19, 51.2 -4.03 M0 -4.31 C18.49 -4.21, 36.98 -4.11, 51.2 -4.03 M51.2 -4.03 C51.2 -2.94, 51.2 -1.86, 51.2 0 M51.2 -4.03 C51.2 -2.73, 51.2 -1.42, 51.2 0" stroke="#000000" stroke-width="2" fill="none"></path></g></g><mask></mask><g stroke-linecap="round"><g transform="translate(883.7628637881824 756.9608072579649) rotate(0 2.444827150892877 -2.0852937463496346)"><path d="M0 0 C0 -1.07, 0 -2.14, 0 -4.17 M0 0 C0 -1.65, 0 -3.31, 0 -4.17 M0 -4.17 C1.44 -4.17, 2.87 -4.17, 4.89 -4.17 M0 -4.17 C1.14 -4.17, 2.28 -4.17, 4.89 -4.17" stroke="#000000" stroke-width="2" fill="none"></path></g></g><mask></mask><g stroke-linecap="round"><g transform="translate(926.9068723333512 757.1190019559635) rotate(0 -2.444827150892877 -2.0852937463496346)"><path d="M0 0 C0 -1.45, 0 -2.9, 0 -4.17 M0 0 C0 -1.02, 0 -2.04, 0 -4.17 M0 -4.17 C-1.34 -4.17, -2.68 -4.17, -4.89 -4.17 M0 -4.17 C-1.41 -4.17, -2.81 -4.17, -4.89 -4.17" stroke="#000000" stroke-width="2" fill="none"></path></g></g><mask></mask><g stroke-linecap="round"><g transform="translate(890.0906517081403 747.7567521016608) rotate(0 0.3595334045430718 -8.197361623581855)"><path d="M0 0 C-0.97 0, -1.94 0, -2.59 0 M0 0 C-0.85 0, -1.7 0, -2.59 0 M-2.59 0 C-2.59 -4.29, -2.59 -8.59, -2.59 -16.39 M-2.59 0 C-2.59 -3.64, -2.59 -7.28, -2.59 -16.39 M-2.59 -16.39 C-0.94 -16.39, 0.7 -16.39, 3.31 -16.39 M-2.59 -16.39 C-0.87 -16.39, 0.85 -16.39, 3.31 -16.39 M3.31 -16.39 C3.31 -14.59, 3.31 -12.79, 3.31 -8.63 M3.31 -16.39 C3.31 -13.87, 3.31 -11.34, 3.31 -8.63" stroke="#000000" stroke-width="2" fill="none"></path></g></g><mask></mask><g stroke-linecap="round"><g transform="translate(920.420889715394 747.7567521016608) rotate(0 -0.3595334045430718 -8.197361623581855)"><path d="M0 0 C0.92 0, 1.84 0, 2.59 0 M0 0 C1.02 0, 2.04 0, 2.59 0 M2.59 0 C2.59 -5.92, 2.59 -11.84, 2.59 -16.39 M2.59 0 C2.59 -4.69, 2.59 -9.38, 2.59 -16.39 M2.59 -16.39 C0.87 -16.39, -0.85 -16.39, -3.31 -16.39 M2.59 -16.39 C0.31 -16.39, -1.98 -16.39, -3.31 -16.39 M-3.31 -16.39 C-3.31 -14.29, -3.31 -12.19, -3.31 -8.63 M-3.31 -16.39 C-3.31 -14.58, -3.31 -12.77, -3.31 -8.63" stroke="#000000" stroke-width="2" fill="none"></path></g></g><mask></mask><g stroke-linecap="round"><g transform="translate(896.9936930753674 736.8269366035529) rotate(0 3.163893959979049 -2.732453874526982)"><path d="M0 0 C0 -1.78, 0 -3.56, 0 -5.46 M0 0 C0 -1.2, 0 -2.41, 0 -5.46 M0 -5.46 C1.37 -5.46, 2.74 -5.46, 6.33 -5.46 M0 -5.46 C2.45 -5.46, 4.89 -5.46, 6.33 -5.46 M6.33 -5.46 C6.33 -3.88, 6.33 -2.3, 6.33 -0.14 M6.33 -5.46 C6.33 -3.87, 6.33 -2.27, 6.33 -0.14" stroke="#000000" stroke-width="2" fill="none"></path></g></g><mask></mask><g stroke-linecap="round"><g transform="translate(907.348255126208 736.8269366035529) rotate(0 3.163893959979049 -2.732453874526982)"><path d="M0 0 C0 -1.52, 0 -3.04, 0 -5.46 M0 0 C0 -1.77, 0 -3.54, 0 -5.46 M0 -5.46 C1.66 -5.46, 3.32 -5.46, 6.33 -5.46 M0 -5.46 C1.83 -5.46, 3.66 -5.46, 6.33 -5.46 M6.33 -5.46 C6.33 -3.51, 6.33 -1.56, 6.33 -0.14 M6.33 -5.46 C6.33 -3.88, 6.33 -2.29, 6.33 -0.14" stroke="#000000" stroke-width="2" fill="none"></path></g></g><mask></mask><g stroke-linecap="round"><g transform="translate(880.0237163809343 731.6496555781323) rotate(0 1.5100402990809059 3.16389395997885)"><path d="M0 0 C0.36 0.19, 1.65 0.67, 2.16 1.15 C2.66 1.63, 3.02 2.21, 3.02 2.88 C3.02 3.55, 2.66 4.6, 2.16 5.18 C1.65 5.75, 0.36 6.14, 0 6.33 M0 0 C0.36 0.19, 1.65 0.67, 2.16 1.15 C2.66 1.63, 3.02 2.21, 3.02 2.88 C3.02 3.55, 2.66 4.6, 2.16 5.18 C1.65 5.75, 0.36 6.14, 0 6.33" stroke="#000000" stroke-width="2" fill="none"></path></g></g><mask></mask><g stroke-linecap="round"><g transform="translate(930.861739783325 731.5921302334064) rotate(0 -1.5100402990809094 3.16389395997885)"><path d="M0 0 C-0.36 0.19, -1.65 0.67, -2.16 1.15 C-2.66 1.63, -3.02 2.21, -3.02 2.88 C-3.02 3.55, -2.66 4.6, -2.16 5.18 C-1.65 5.75, -0.36 6.14, 0 6.33 M0 0 C-0.36 0.19, -1.65 0.67, -2.16 1.15 C-2.66 1.63, -3.02 2.21, -3.02 2.88 C-3.02 3.55, -2.66 4.6, -2.16 5.18 C-1.65 5.75, -0.36 6.14, 0 6.33" stroke="#000000" stroke-width="2" fill="none"></path></g></g><mask></mask><g stroke-opacity="0.9" fill-opacity="0.9" transform="translate(879.3458760063742 834.7570801459697) rotate(0 88.98332977294922 19.199999999999818)"><text x="0" y="0" font-family="Cascadia, Segoe UI Emoji" font-size="16px" fill="#1e1e1e" text-anchor="start" style="white-space: pre;" direction="ltr" dominant-baseline="text-before-edge">grouped by provider</text><text x="0" y="19.2" font-family="Cascadia, Segoe UI Emoji" font-size="16px" fill="#1e1e1e" text-anchor="start" style="white-space: pre;" direction="ltr" dominant-baseline="text-before-edge">ex: Github</text></g><g stroke-linecap="round"><g stroke-opacity="0.9" fill-opacity="0.9" transform="translate(861.3337884253897 824.6743807421171) rotate(0 -36.87023849703314 66.8806363013673)"><path d="M0 0 C-12.29 22.29, -61.45 111.47, -73.74 133.76 M0 0 C-12.29 22.29, -61.45 111.47, -73.74 133.76" stroke="#1e1e1e" stroke-width="2" fill="none"></path></g><g stroke-opacity="0.9" fill-opacity="0.9" transform="translate(861.3337884253897 824.6743807421171) rotate(0 -36.87023849703314 66.8806363013673)"><path d="M-69.89 109.06 C-70.82 115.01, -71.74 120.97, -73.74 133.76 M-69.89 109.06 C-71.06 116.58, -72.23 124.1, -73.74 133.76" stroke="#1e1e1e" stroke-width="2" fill="none"></path></g><g stroke-opacity="0.9" fill-opacity="0.9" transform="translate(861.3337884253897 824.6743807421171) rotate(0 -36.87023849703314 66.8806363013673)"><path d="M-54.91 117.32 C-59.45 121.28, -63.99 125.24, -73.74 133.76 M-54.91 117.32 C-60.64 122.32, -66.38 127.33, -73.74 133.76" stroke="#1e1e1e" stroke-width="2" fill="none"></path></g></g><mask></mask><g stroke-opacity="0.9" fill-opacity="0.9" transform="translate(103.99999999999977 107.56931568108303) rotate(0 63.29999923706055 21.600000000000364)"><text x="0" y="0" font-family="Cascadia, Segoe UI Emoji" font-size="36px" fill="#1e1e1e" text-anchor="start" style="white-space: pre;" direction="ltr" dominant-baseline="text-before-edge">Github</text></g><g stroke-opacity="0.9" fill-opacity="0.9" stroke-linecap="round" transform="translate(10 53.569315681083026) rotate(0 156 86)"><path d="M32 0 C86.4 0, 140.8 0, 280 0 M32 0 C101.56 0, 171.11 0, 280 0 M280 0 C301.33 0, 312 10.67, 312 32 M280 0 C301.33 0, 312 10.67, 312 32 M312 32 C312 75.06, 312 118.13, 312 140 M312 32 C312 56.13, 312 80.26, 312 140 M312 140 C312 161.33, 301.33 172, 280 172 M312 140 C312 161.33, 301.33 172, 280 172 M280 172 C206.07 172, 132.14 172, 32 172 M280 172 C210.35 172, 140.7 172, 32 172 M32 172 C10.67 172, 0 161.33, 0 140 M32 172 C10.67 172, 0 161.33, 0 140 M0 140 C0 104.7, 0 69.41, 0 32 M0 140 C0 114.82, 0 89.63, 0 32 M0 32 C0 10.67, 10.67 0, 32 0 M0 32 C0 10.67, 10.67 0, 32 0" stroke="#1e1e1e" stroke-width="2" fill="none"></path></g><g stroke-opacity="0.9" fill-opacity="0.9" transform="translate(34.41566596359564 30.157667718594894) rotate(0 56.20000076293945 9.600000000000364)"><text x="0" y="0" font-family="Cascadia, Segoe UI Emoji" font-size="16px" fill="#1e1e1e" text-anchor="start" style="white-space: pre;" direction="ltr" dominant-baseline="text-before-edge">Providers[0]</text></g><g stroke-opacity="0.9" fill-opacity="0.9" stroke-linecap="round" transform="translate(271.7713736402004 752.3467350025003) rotate(0 51.85102307175157 45.94394449395713)"><path d="M22.97 0 C38.46 0, 53.95 0, 80.73 0 C96.04 0, 103.7 7.66, 103.7 22.97 C103.7 34.96, 103.7 46.95, 103.7 68.92 C103.7 84.23, 96.04 91.89, 80.73 91.89 C58.89 91.89, 37.05 91.89, 22.97 91.89 C7.66 91.89, 0 84.23, 0 68.92 C0 55.4, 0 41.89, 0 22.97 C0 7.66, 7.66 0, 22.97 0" stroke="none" stroke-width="0" fill="#ffc9c9"></path><path d="M22.97 0 C42.15 0, 61.33 0, 80.73 0 M22.97 0 C38.7 0, 54.43 0, 80.73 0 M80.73 0 C96.04 0, 103.7 7.66, 103.7 22.97 M80.73 0 C96.04 0, 103.7 7.66, 103.7 22.97 M103.7 22.97 C103.7 33.38, 103.7 43.78, 103.7 68.92 M103.7 22.97 C103.7 34.43, 103.7 45.89, 103.7 68.92 M103.7 68.92 C103.7 84.23, 96.04 91.89, 80.73 91.89 M103.7 68.92 C103.7 84.23, 96.04 91.89, 80.73 91.89 M80.73 91.89 C68.04 91.89, 55.34 91.89, 22.97 91.89 M80.73 91.89 C62.21 91.89, 43.68 91.89, 22.97 91.89 M22.97 91.89 C7.66 91.89, 0 84.23, 0 68.92 M22.97 91.89 C7.66 91.89, 0 84.23, 0 68.92 M0 68.92 C0 52.63, 0 36.35, 0 22.97 M0 68.92 C0 51.83, 0 34.75, 0 22.97 M0 22.97 C0 7.66, 7.66 0, 22.97 0 M0 22.97 C0 7.66, 7.66 0, 22.97 0" stroke="#1e1e1e" stroke-width="2" fill="none"></path></g><g stroke-opacity="0.9" fill-opacity="0.9" transform="translate(290.83906388724495 769.4906794964572) rotate(0 32.78333282470703 28.800000000000182)"><text x="32.78333282470703" y="0" font-family="Cascadia, Segoe UI Emoji" font-size="16px" fill="#1e1e1e" text-anchor="middle" style="white-space: pre;" direction="ltr" dominant-baseline="text-before-edge">Worker</text><text x="32.78333282470703" y="19.2" font-family="Cascadia, Segoe UI Emoji" font-size="16px" fill="#1e1e1e" text-anchor="middle" style="white-space: pre;" direction="ltr" dominant-baseline="text-before-edge">Process</text><text x="32.78333282470703" y="38.4" font-family="Cascadia, Segoe UI Emoji" font-size="16px" fill="#1e1e1e" text-anchor="middle" style="white-space: pre;" direction="ltr" dominant-baseline="text-before-edge">Data</text></g><g stroke-opacity="0.9" fill-opacity="0.9" stroke-linecap="round" transform="translate(281.7713736402004 762.3467350025003) rotate(0 51.85102307175157 45.94394449395713)"><path d="M22.97 0 C44.65 0, 66.33 0, 80.73 0 C96.04 0, 103.7 7.66, 103.7 22.97 C103.7 36.68, 103.7 50.39, 103.7 68.92 C103.7 84.23, 96.04 91.89, 80.73 91.89 C59.24 91.89, 37.76 91.89, 22.97 91.89 C7.66 91.89, 0 84.23, 0 68.92 C0 51.14, 0 33.36, 0 22.97 C0 7.66, 7.66 0, 22.97 0" stroke="none" stroke-width="0" fill="#ffc9c9"></path><path d="M22.97 0 C36.94 0, 50.9 0, 80.73 0 M22.97 0 C39.8 0, 56.62 0, 80.73 0 M80.73 0 C96.04 0, 103.7 7.66, 103.7 22.97 M80.73 0 C96.04 0, 103.7 7.66, 103.7 22.97 M103.7 22.97 C103.7 35.93, 103.7 48.9, 103.7 68.92 M103.7 22.97 C103.7 36.2, 103.7 49.42, 103.7 68.92 M103.7 68.92 C103.7 84.23, 96.04 91.89, 80.73 91.89 M103.7 68.92 C103.7 84.23, 96.04 91.89, 80.73 91.89 M80.73 91.89 C57.77 91.89, 34.8 91.89, 22.97 91.89 M80.73 91.89 C66.14 91.89, 51.55 91.89, 22.97 91.89 M22.97 91.89 C7.66 91.89, 0 84.23, 0 68.92 M22.97 91.89 C7.66 91.89, 0 84.23, 0 68.92 M0 68.92 C0 52.02, 0 35.13, 0 22.97 M0 68.92 C0 57.97, 0 47.01, 0 22.97 M0 22.97 C0 7.66, 7.66 0, 22.97 0 M0 22.97 C0 7.66, 7.66 0, 22.97 0" stroke="#1e1e1e" stroke-width="2" fill="none"></path></g><g stroke-opacity="0.9" fill-opacity="0.9" transform="translate(300.83906388724495 779.4906794964572) rotate(0 32.78333282470703 28.800000000000182)"><text x="32.78333282470703" y="0" font-family="Cascadia, Segoe UI Emoji" font-size="16px" fill="#1e1e1e" text-anchor="middle" style="white-space: pre;" direction="ltr" dominant-baseline="text-before-edge">Worker</text><text x="32.78333282470703" y="19.2" font-family="Cascadia, Segoe UI Emoji" font-size="16px" fill="#1e1e1e" text-anchor="middle" style="white-space: pre;" direction="ltr" dominant-baseline="text-before-edge">Process</text><text x="32.78333282470703" y="38.4" font-family="Cascadia, Segoe UI Emoji" font-size="16px" fill="#1e1e1e" text-anchor="middle" style="white-space: pre;" direction="ltr" dominant-baseline="text-before-edge">Data</text></g><g stroke-opacity="0.9" fill-opacity="0.9" stroke-linecap="round" transform="translate(291.7713736402004 772.3467350025003) rotate(0 51.85102307175157 45.94394449395713)"><path d="M22.97 0 C41.44 0, 59.92 0, 80.73 0 C96.04 0, 103.7 7.66, 103.7 22.97 C103.7 40.2, 103.7 57.42, 103.7 68.92 C103.7 84.23, 96.04 91.89, 80.73 91.89 C65.61 91.89, 50.5 91.89, 22.97 91.89 C7.66 91.89, 0 84.23, 0 68.92 C0 57.08, 0 45.24, 0 22.97 C0 7.66, 7.66 0, 22.97 0" stroke="none" stroke-width="0" fill="#ffc9c9"></path><path d="M22.97 0 C43.38 0, 63.78 0, 80.73 0 M22.97 0 C39.72 0, 56.47 0, 80.73 0 M80.73 0 C96.04 0, 103.7 7.66, 103.7 22.97 M80.73 0 C96.04 0, 103.7 7.66, 103.7 22.97 M103.7 22.97 C103.7 40.79, 103.7 58.6, 103.7 68.92 M103.7 22.97 C103.7 35.45, 103.7 47.93, 103.7 68.92 M103.7 68.92 C103.7 84.23, 96.04 91.89, 80.73 91.89 M103.7 68.92 C103.7 84.23, 96.04 91.89, 80.73 91.89 M80.73 91.89 C63.44 91.89, 46.14 91.89, 22.97 91.89 M80.73 91.89 C65.67 91.89, 50.62 91.89, 22.97 91.89 M22.97 91.89 C7.66 91.89, 0 84.23, 0 68.92 M22.97 91.89 C7.66 91.89, 0 84.23, 0 68.92 M0 68.92 C0 51.4, 0 33.89, 0 22.97 M0 68.92 C0 57.1, 0 45.28, 0 22.97 M0 22.97 C0 7.66, 7.66 0, 22.97 0 M0 22.97 C0 7.66, 7.66 0, 22.97 0" stroke="#1e1e1e" stroke-width="2" fill="none"></path></g><g stroke-opacity="0.9" fill-opacity="0.9" transform="translate(310.83906388724495 789.4906794964572) rotate(0 32.78333282470703 28.800000000000182)"><text x="32.78333282470703" y="0" font-family="Cascadia, Segoe UI Emoji" font-size="16px" fill="#1e1e1e" text-anchor="middle" style="white-space: pre;" direction="ltr" dominant-baseline="text-before-edge">Worker</text><text x="32.78333282470703" y="19.2" font-family="Cascadia, Segoe UI Emoji" font-size="16px" fill="#1e1e1e" text-anchor="middle" style="white-space: pre;" direction="ltr" dominant-baseline="text-before-edge">Process</text><text x="32.78333282470703" y="38.4" font-family="Cascadia, Segoe UI Emoji" font-size="16px" fill="#1e1e1e" text-anchor="middle" style="white-space: pre;" direction="ltr" dominant-baseline="text-before-edge">Data</text></g><g stroke-opacity="0.9" fill-opacity="0.9" stroke-linecap="round" transform="translate(301.7713736402004 782.3467350025003) rotate(0 51.85102307175157 45.94394449395713)"><path d="M22.97 0 C45.77 0, 68.58 0, 80.73 0 C96.04 0, 103.7 7.66, 103.7 22.97 C103.7 37.94, 103.7 52.9, 103.7 68.92 C103.7 84.23, 96.04 91.89, 80.73 91.89 C66.2 91.89, 51.68 91.89, 22.97 91.89 C7.66 91.89, 0 84.23, 0 68.92 C0 55.94, 0 42.96, 0 22.97 C0 7.66, 7.66 0, 22.97 0" stroke="none" stroke-width="0" fill="#ffc9c9"></path><path d="M22.97 0 C41.85 0, 60.73 0, 80.73 0 M22.97 0 C35.3 0, 47.63 0, 80.73 0 M80.73 0 C96.04 0, 103.7 7.66, 103.7 22.97 M80.73 0 C96.04 0, 103.7 7.66, 103.7 22.97 M103.7 22.97 C103.7 37.32, 103.7 51.66, 103.7 68.92 M103.7 22.97 C103.7 37.12, 103.7 51.27, 103.7 68.92 M103.7 68.92 C103.7 84.23, 96.04 91.89, 80.73 91.89 M103.7 68.92 C103.7 84.23, 96.04 91.89, 80.73 91.89 M80.73 91.89 C65.91 91.89, 51.08 91.89, 22.97 91.89 M80.73 91.89 C59.5 91.89, 38.26 91.89, 22.97 91.89 M22.97 91.89 C7.66 91.89, 0 84.23, 0 68.92 M22.97 91.89 C7.66 91.89, 0 84.23, 0 68.92 M0 68.92 C0 51.37, 0 33.81, 0 22.97 M0 68.92 C0 56.3, 0 43.69, 0 22.97 M0 22.97 C0 7.66, 7.66 0, 22.97 0 M0 22.97 C0 7.66, 7.66 0, 22.97 0" stroke="#1e1e1e" stroke-width="2" fill="none"></path></g><g stroke-opacity="0.9" fill-opacity="0.9" transform="translate(320.83906388724495 799.4906794964572) rotate(0 32.78333282470703 28.800000000000182)"><text x="32.78333282470703" y="0" font-family="Cascadia, Segoe UI Emoji" font-size="16px" fill="#1e1e1e" text-anchor="middle" style="white-space: pre;" direction="ltr" dominant-baseline="text-before-edge">Worker</text><text x="32.78333282470703" y="19.2" font-family="Cascadia, Segoe UI Emoji" font-size="16px" fill="#1e1e1e" text-anchor="middle" style="white-space: pre;" direction="ltr" dominant-baseline="text-before-edge">Process</text><text x="32.78333282470703" y="38.4" font-family="Cascadia, Segoe UI Emoji" font-size="16px" fill="#1e1e1e" text-anchor="middle" style="white-space: pre;" direction="ltr" dominant-baseline="text-before-edge">Data</text></g><g stroke-opacity="0.9" fill-opacity="0.9" stroke-linecap="round" transform="translate(263.89526886980775 736.5945254617163) rotate(0 74.8229953187302 73.51031119033087)"><path d="M32 0 C50.28 0, 68.56 0, 117.65 0 M32 0 C49.36 0, 66.72 0, 117.65 0 M117.65 0 C138.98 0, 149.65 10.67, 149.65 32 M117.65 0 C138.98 0, 149.65 10.67, 149.65 32 M149.65 32 C149.65 57.57, 149.65 83.14, 149.65 115.02 M149.65 32 C149.65 63.32, 149.65 94.64, 149.65 115.02 M149.65 115.02 C149.65 136.35, 138.98 147.02, 117.65 147.02 M149.65 115.02 C149.65 136.35, 138.98 147.02, 117.65 147.02 M117.65 147.02 C86.16 147.02, 54.67 147.02, 32 147.02 M117.65 147.02 C92.74 147.02, 67.83 147.02, 32 147.02 M32 147.02 C10.67 147.02, 0 136.35, 0 115.02 M32 147.02 C10.67 147.02, 0 136.35, 0 115.02 M0 115.02 C0 92.23, 0 69.44, 0 32 M0 115.02 C0 98, 0 80.97, 0 32 M0 32 C0 10.67, 10.67 0, 32 0 M0 32 C0 10.67, 10.67 0, 32 0" stroke="#1e1e1e" stroke-width="2" fill="none"></path></g><g stroke-opacity="0.9" fill-opacity="0.9" transform="translate(279.64747841059307 714.2788952789379) rotate(0 18.733333587646484 9.600000000000364)"><text x="0" y="0" font-family="Cascadia, Segoe UI Emoji" font-size="16px" fill="#1e1e1e" text-anchor="start" style="white-space: pre;" direction="ltr" dominant-baseline="text-before-edge">Pool</text></g><g stroke-opacity="0.9" fill-opacity="0.9" stroke-linecap="round" transform="translate(273.895268869808 965.8127749043106) rotate(0 51.85102307175157 45.94394449395713)"><path d="M22.97 0 C44.65 0, 66.33 0, 80.73 0 C96.04 0, 103.7 7.66, 103.7 22.97 C103.7 33.88, 103.7 44.78, 103.7 68.92 C103.7 84.23, 96.04 91.89, 80.73 91.89 C67.1 91.89, 53.46 91.89, 22.97 91.89 C7.66 91.89, 0 84.23, 0 68.92 C0 59.44, 0 49.96, 0 22.97 C0 7.66, 7.66 0, 22.97 0" stroke="none" stroke-width="0" fill="#ffc9c9"></path><path d="M22.97 0 C40.4 0, 57.83 0, 80.73 0 M22.97 0 C37.23 0, 51.5 0, 80.73 0 M80.73 0 C96.04 0, 103.7 7.66, 103.7 22.97 M80.73 0 C96.04 0, 103.7 7.66, 103.7 22.97 M103.7 22.97 C103.7 36.35, 103.7 49.73, 103.7 68.92 M103.7 22.97 C103.7 38.79, 103.7 54.61, 103.7 68.92 M103.7 68.92 C103.7 84.23, 96.04 91.89, 80.73 91.89 M103.7 68.92 C103.7 84.23, 96.04 91.89, 80.73 91.89 M80.73 91.89 C65.01 91.89, 49.3 91.89, 22.97 91.89 M80.73 91.89 C58.19 91.89, 35.65 91.89, 22.97 91.89 M22.97 91.89 C7.66 91.89, 0 84.23, 0 68.92 M22.97 91.89 C7.66 91.89, 0 84.23, 0 68.92 M0 68.92 C0 52.5, 0 36.08, 0 22.97 M0 68.92 C0 56.38, 0 43.84, 0 22.97 M0 22.97 C0 7.66, 7.66 0, 22.97 0 M0 22.97 C0 7.66, 7.66 0, 22.97 0" stroke="#1e1e1e" stroke-width="2" fill="none"></path></g><g stroke-opacity="0.9" fill-opacity="0.9" transform="translate(292.9629591168525 982.9567193982675) rotate(0 32.78333282470703 28.800000000000182)"><text x="32.78333282470703" y="0" font-family="Cascadia, Segoe UI Emoji" font-size="16px" fill="#1e1e1e" text-anchor="middle" style="white-space: pre;" direction="ltr" dominant-baseline="text-before-edge">Worker</text><text x="32.78333282470703" y="19.2" font-family="Cascadia, Segoe UI Emoji" font-size="16px" fill="#1e1e1e" text-anchor="middle" style="white-space: pre;" direction="ltr" dominant-baseline="text-before-edge">Process</text><text x="32.78333282470703" y="38.4" font-family="Cascadia, Segoe UI Emoji" font-size="16px" fill="#1e1e1e" text-anchor="middle" style="white-space: pre;" direction="ltr" dominant-baseline="text-before-edge">Data</text></g><g stroke-opacity="0.9" fill-opacity="0.9" stroke-linecap="round" transform="translate(283.895268869808 975.8127749043106) rotate(0 51.85102307175157 45.94394449395713)"><path d="M22.97 0 C41.98 0, 61 0, 80.73 0 C96.04 0, 103.7 7.66, 103.7 22.97 C103.7 41.23, 103.7 59.5, 103.7 68.92 C103.7 84.23, 96.04 91.89, 80.73 91.89 C67.83 91.89, 54.92 91.89, 22.97 91.89 C7.66 91.89, 0 84.23, 0 68.92 C0 57.07, 0 45.23, 0 22.97 C0 7.66, 7.66 0, 22.97 0" stroke="none" stroke-width="0" fill="#ffc9c9"></path><path d="M22.97 0 C45.57 0, 68.17 0, 80.73 0 M22.97 0 C37.56 0, 52.15 0, 80.73 0 M80.73 0 C96.04 0, 103.7 7.66, 103.7 22.97 M80.73 0 C96.04 0, 103.7 7.66, 103.7 22.97 M103.7 22.97 C103.7 38.1, 103.7 53.24, 103.7 68.92 M103.7 22.97 C103.7 33.91, 103.7 44.85, 103.7 68.92 M103.7 68.92 C103.7 84.23, 96.04 91.89, 80.73 91.89 M103.7 68.92 C103.7 84.23, 96.04 91.89, 80.73 91.89 M80.73 91.89 C61.59 91.89, 42.46 91.89, 22.97 91.89 M80.73 91.89 C65.78 91.89, 50.84 91.89, 22.97 91.89 M22.97 91.89 C7.66 91.89, 0 84.23, 0 68.92 M22.97 91.89 C7.66 91.89, 0 84.23, 0 68.92 M0 68.92 C0 55.38, 0 41.85, 0 22.97 M0 68.92 C0 55.66, 0 42.41, 0 22.97 M0 22.97 C0 7.66, 7.66 0, 22.97 0 M0 22.97 C0 7.66, 7.66 0, 22.97 0" stroke="#1e1e1e" stroke-width="2" fill="none"></path></g><g stroke-opacity="0.9" fill-opacity="0.9" transform="translate(302.9629591168525 992.9567193982675) rotate(0 32.78333282470703 28.800000000000182)"><text x="32.78333282470703" y="0" font-family="Cascadia, Segoe UI Emoji" font-size="16px" fill="#1e1e1e" text-anchor="middle" style="white-space: pre;" direction="ltr" dominant-baseline="text-before-edge">Worker</text><text x="32.78333282470703" y="19.2" font-family="Cascadia, Segoe UI Emoji" font-size="16px" fill="#1e1e1e" text-anchor="middle" style="white-space: pre;" direction="ltr" dominant-baseline="text-before-edge">Process</text><text x="32.78333282470703" y="38.4" font-family="Cascadia, Segoe UI Emoji" font-size="16px" fill="#1e1e1e" text-anchor="middle" style="white-space: pre;" direction="ltr" dominant-baseline="text-before-edge">Data</text></g><g stroke-opacity="0.9" fill-opacity="0.9" stroke-linecap="round" transform="translate(293.895268869808 985.8127749043106) rotate(0 51.85102307175157 45.94394449395713)"><path d="M22.97 0 C44.08 0, 65.19 0, 80.73 0 C96.04 0, 103.7 7.66, 103.7 22.97 C103.7 33.89, 103.7 44.81, 103.7 68.92 C103.7 84.23, 96.04 91.89, 80.73 91.89 C59.25 91.89, 37.77 91.89, 22.97 91.89 C7.66 91.89, 0 84.23, 0 68.92 C0 52.79, 0 36.66, 0 22.97 C0 7.66, 7.66 0, 22.97 0" stroke="none" stroke-width="0" fill="#ffc9c9"></path><path d="M22.97 0 C36.02 0, 49.07 0, 80.73 0 M22.97 0 C37.31 0, 51.65 0, 80.73 0 M80.73 0 C96.04 0, 103.7 7.66, 103.7 22.97 M80.73 0 C96.04 0, 103.7 7.66, 103.7 22.97 M103.7 22.97 C103.7 40.51, 103.7 58.04, 103.7 68.92 M103.7 22.97 C103.7 41.29, 103.7 59.61, 103.7 68.92 M103.7 68.92 C103.7 84.23, 96.04 91.89, 80.73 91.89 M103.7 68.92 C103.7 84.23, 96.04 91.89, 80.73 91.89 M80.73 91.89 C61.09 91.89, 41.45 91.89, 22.97 91.89 M80.73 91.89 C68.28 91.89, 55.84 91.89, 22.97 91.89 M22.97 91.89 C7.66 91.89, 0 84.23, 0 68.92 M22.97 91.89 C7.66 91.89, 0 84.23, 0 68.92 M0 68.92 C0 56.33, 0 43.74, 0 22.97 M0 68.92 C0 58.93, 0 48.94, 0 22.97 M0 22.97 C0 7.66, 7.66 0, 22.97 0 M0 22.97 C0 7.66, 7.66 0, 22.97 0" stroke="#1e1e1e" stroke-width="2" fill="none"></path></g><g stroke-opacity="0.9" fill-opacity="0.9" transform="translate(312.9629591168525 1002.9567193982675) rotate(0 32.78333282470703 28.800000000000182)"><text x="32.78333282470703" y="0" font-family="Cascadia, Segoe UI Emoji" font-size="16px" fill="#1e1e1e" text-anchor="middle" style="white-space: pre;" direction="ltr" dominant-baseline="text-before-edge">Worker</text><text x="32.78333282470703" y="19.2" font-family="Cascadia, Segoe UI Emoji" font-size="16px" fill="#1e1e1e" text-anchor="middle" style="white-space: pre;" direction="ltr" dominant-baseline="text-before-edge">Process</text><text x="32.78333282470703" y="38.4" font-family="Cascadia, Segoe UI Emoji" font-size="16px" fill="#1e1e1e" text-anchor="middle" style="white-space: pre;" direction="ltr" dominant-baseline="text-before-edge">Data</text></g><g stroke-opacity="0.9" fill-opacity="0.9" stroke-linecap="round" transform="translate(303.895268869808 995.8127749043106) rotate(0 51.85102307175157 45.94394449395713)"><path d="M22.97 0 C44.7 0, 66.43 0, 80.73 0 C96.04 0, 103.7 7.66, 103.7 22.97 C103.7 39.92, 103.7 56.87, 103.7 68.92 C103.7 84.23, 96.04 91.89, 80.73 91.89 C57.73 91.89, 34.73 91.89, 22.97 91.89 C7.66 91.89, 0 84.23, 0 68.92 C0 56.31, 0 43.71, 0 22.97 C0 7.66, 7.66 0, 22.97 0" stroke="none" stroke-width="0" fill="#ffc9c9"></path><path d="M22.97 0 C41.36 0, 59.74 0, 80.73 0 M22.97 0 C44.05 0, 65.13 0, 80.73 0 M80.73 0 C96.04 0, 103.7 7.66, 103.7 22.97 M80.73 0 C96.04 0, 103.7 7.66, 103.7 22.97 M103.7 22.97 C103.7 36.65, 103.7 50.33, 103.7 68.92 M103.7 22.97 C103.7 34.6, 103.7 46.22, 103.7 68.92 M103.7 68.92 C103.7 84.23, 96.04 91.89, 80.73 91.89 M103.7 68.92 C103.7 84.23, 96.04 91.89, 80.73 91.89 M80.73 91.89 C60.11 91.89, 39.49 91.89, 22.97 91.89 M80.73 91.89 C59.87 91.89, 39.01 91.89, 22.97 91.89 M22.97 91.89 C7.66 91.89, 0 84.23, 0 68.92 M22.97 91.89 C7.66 91.89, 0 84.23, 0 68.92 M0 68.92 C0 53.53, 0 38.15, 0 22.97 M0 68.92 C0 54.56, 0 40.2, 0 22.97 M0 22.97 C0 7.66, 7.66 0, 22.97 0 M0 22.97 C0 7.66, 7.66 0, 22.97 0" stroke="#1e1e1e" stroke-width="2" fill="none"></path></g><g stroke-opacity="0.9" fill-opacity="0.9" transform="translate(322.9629591168525 1012.9567193982675) rotate(0 32.78333282470703 28.800000000000182)"><text x="32.78333282470703" y="0" font-family="Cascadia, Segoe UI Emoji" font-size="16px" fill="#1e1e1e" text-anchor="middle" style="white-space: pre;" direction="ltr" dominant-baseline="text-before-edge">Worker</text><text x="32.78333282470703" y="19.2" font-family="Cascadia, Segoe UI Emoji" font-size="16px" fill="#1e1e1e" text-anchor="middle" style="white-space: pre;" direction="ltr" dominant-baseline="text-before-edge">Process</text><text x="32.78333282470703" y="38.4" font-family="Cascadia, Segoe UI Emoji" font-size="16px" fill="#1e1e1e" text-anchor="middle" style="white-space: pre;" direction="ltr" dominant-baseline="text-before-edge">Data</text></g><g stroke-opacity="0.9" fill-opacity="0.9" stroke-linecap="round" transform="translate(266.0191640994153 950.0605653635266) rotate(0 74.8229953187302 73.51031119033087)"><path d="M32 0 C49.55 0, 67.09 0, 117.65 0 M32 0 C49.87 0, 67.74 0, 117.65 0 M117.65 0 C138.98 0, 149.65 10.67, 149.65 32 M117.65 0 C138.98 0, 149.65 10.67, 149.65 32 M149.65 32 C149.65 62.42, 149.65 92.85, 149.65 115.02 M149.65 32 C149.65 51.7, 149.65 71.39, 149.65 115.02 M149.65 115.02 C149.65 136.35, 138.98 147.02, 117.65 147.02 M149.65 115.02 C149.65 136.35, 138.98 147.02, 117.65 147.02 M117.65 147.02 C83.78 147.02, 49.91 147.02, 32 147.02 M117.65 147.02 C97.07 147.02, 76.49 147.02, 32 147.02 M32 147.02 C10.67 147.02, 0 136.35, 0 115.02 M32 147.02 C10.67 147.02, 0 136.35, 0 115.02 M0 115.02 C0 91.2, 0 67.37, 0 32 M0 115.02 C0 98.03, 0 81.04, 0 32 M0 32 C0 10.67, 10.67 0, 32 0 M0 32 C0 10.67, 10.67 0, 32 0" stroke="#1e1e1e" stroke-width="2" fill="none"></path></g><g stroke-opacity="0.9" fill-opacity="0.9" transform="translate(281.77137364020064 927.7449351807481) rotate(0 18.733333587646484 9.600000000000364)"><text x="0" y="0" font-family="Cascadia, Segoe UI Emoji" font-size="16px" fill="#1e1e1e" text-anchor="start" style="white-space: pre;" direction="ltr" dominant-baseline="text-before-edge">Pool</text></g><g stroke-linecap="round"><g stroke-opacity="0.9" fill-opacity="0.9" transform="translate(497.55304372478963 811.6608245922143) rotate(0 -37.411497659365125 0.5119767805053925)"><path d="M0 0 C-12.47 0.17, -62.35 0.85, -74.82 1.02 M0 0 C-12.47 0.17, -62.35 0.85, -74.82 1.02" stroke="#1e1e1e" stroke-width="2" fill="none"></path></g><g stroke-opacity="0.9" fill-opacity="0.9" transform="translate(497.55304372478963 811.6608245922143) rotate(0 -37.411497659365125 0.5119767805053925)"><path d="M-51.45 -7.85 C-57.86 -5.42, -64.26 -2.98, -74.82 1.02 M-51.45 -7.85 C-59.36 -4.85, -67.26 -1.85, -74.82 1.02" stroke="#1e1e1e" stroke-width="2" fill="none"></path></g><g stroke-opacity="0.9" fill-opacity="0.9" transform="translate(497.55304372478963 811.6608245922143) rotate(0 -37.411497659365125 0.5119767805053925)"><path d="M-51.22 9.25 C-57.69 7, -64.15 4.74, -74.82 1.02 M-51.22 9.25 C-59.2 6.47, -67.19 3.69, -74.82 1.02" stroke="#1e1e1e" stroke-width="2" fill="none"></path></g></g><mask></mask><g stroke-linecap="round"><g stroke-opacity="0.9" fill-opacity="0.9" transform="translate(494.927675467992 1003.983226180726) rotate(0 -38.06783972356442 0.038784581211984914)"><path d="M0 0 C-12.69 0.01, -63.45 0.06, -76.14 0.08 M0 0 C-12.69 0.01, -63.45 0.06, -76.14 0.08" stroke="#1e1e1e" stroke-width="2" fill="none"></path></g><g stroke-opacity="0.9" fill-opacity="0.9" transform="translate(494.927675467992 1003.983226180726) rotate(0 -38.06783972356442 0.038784581211984914)"><path d="M-52.65 -8.5 C-57.87 -6.59, -63.1 -4.68, -76.14 0.08 M-52.65 -8.5 C-61 -5.45, -69.35 -2.4, -76.14 0.08" stroke="#1e1e1e" stroke-width="2" fill="none"></path></g><g stroke-opacity="0.9" fill-opacity="0.9" transform="translate(494.927675467992 1003.983226180726) rotate(0 -38.06783972356442 0.038784581211984914)"><path d="M-52.63 8.6 C-57.86 6.71, -63.09 4.81, -76.14 0.08 M-52.63 8.6 C-60.99 5.57, -69.35 2.54, -76.14 0.08" stroke="#1e1e1e" stroke-width="2" fill="none"></path></g></g><mask></mask><g stroke-opacity="0.9" fill-opacity="0.9" stroke-linecap="round" transform="translate(166.75664336829846 665.7095825281776) rotate(0 324.8893217786966 248.09730026736815)"><path d="M32 0 C175.11 0, 318.22 0, 617.78 0 M617.78 0 C639.11 0, 649.78 10.67, 649.78 32 M649.78 32 C649.78 185.54, 649.78 339.08, 649.78 464.19 M649.78 464.19 C649.78 485.53, 639.11 496.19, 617.78 496.19 M617.78 496.19 C429.06 496.19, 240.35 496.19, 32 496.19 M32 496.19 C10.67 496.19, 0 485.53, 0 464.19 M0 464.19 C0 356.95, 0 249.7, 0 32 M0 32 C0 10.67, 10.67 0, 32 0" stroke="#1e1e1e" stroke-width="2.5" fill="none" stroke-dasharray="1.5 8"></path></g><g stroke-opacity="0.9" fill-opacity="0.9" transform="translate(368.9099991417096 1142.213921136934) rotate(0 46.83333206176758 9.600000000000364)"><text x="0" y="0" font-family="Cascadia, Segoe UI Emoji" font-size="16px" fill="#1e1e1e" text-anchor="start" style="white-space: pre;" direction="ltr" dominant-baseline="text-before-edge">Go Routine</text></g></svg>